<?xml version="1.0"?>
<svg xmlns="http://www.w3.org/2000/svg" viewBox="0 0 64 64" width="512" height="512" fill="#bd1414">
    <g id="Cooking-cutlery-kitchen">
        <path d="M53.062,50H44.629A22.109,22.109,0,0,0,54,32a21.775,21.775,0,0,0-5.036-14H56V16H42A6,6,0,0,1,42,4H56V2H42a8.013,8.013,0,0,0-7.376,4.9L11,6a4,4,0,1,0,.037,8h0l8.82-.338A21.977,21.977,0,0,0,19.374,50H9.691a2.691,2.691,0,0,0-.675,5.3L32.247,61.32a3.047,3.047,0,0,0,.76.1,3,3,0,0,0,2.993-3V56.11l16.9,1.762A3.938,3.938,0,1,0,53.062,50ZM11,12A2,2,0,0,1,9.587,8.587,1.962,1.962,0,0,1,10.962,8l23.125.884A8.052,8.052,0,0,0,34,10a8.052,8.052,0,0,0,.087,1.116Zm1,20A19.917,19.917,0,0,1,24.442,13.486L34.624,13.1A8.013,8.013,0,0,0,42,18h4.255A19.8,19.8,0,0,1,52,32,20.089,20.089,0,0,1,40.718,50H23.291A20.072,20.072,0,0,1,12,32ZM54.4,55.335a1.926,1.926,0,0,1-1.36.543L35.1,54.005a1.01,1.01,0,0,0-.773.252A1,1,0,0,0,34,55v3.416a1,1,0,0,1-1.251.968L9.518,53.361A.692.692,0,0,1,9.691,52H53.062A1.94,1.94,0,0,1,55,53.938,1.92,1.92,0,0,1,54.4,55.335Z"/>
        <rect x="44" y="7" width="12" height="2"/>
        <rect x="44" y="11" width="12" height="2"/>
        <path d="M46,32A14,14,0,1,0,32,46,14.015,14.015,0,0,0,46,32ZM20,32A12,12,0,1,1,32,44,12.013,12.013,0,0,1,20,32Z"/>
    </g>
</svg>
