<svg height="512" viewBox="0 0 512 512" width="512" 
    xmlns="http://www.w3.org/2000/svg" 
    xmlns:xlink="http://www.w3.org/1999/xlink">
    <linearGradient id="New_Gradient_Swatch_1" gradientUnits="userSpaceOnUse" x1="218" x2="389.277" y1="410" y2="238.723">
        <stop offset=".004" stop-color="#f1cccd"/>
        <stop offset="1" stop-color="#faeeee"/>
    </linearGradient>
    <linearGradient id="New_Gradient_Swatch_4" gradientUnits="userSpaceOnUse" x1="-8" x2="152" y1="472" y2="312">
        <stop offset=".011" stop-color="#cacad5"/>
        <stop offset="1" stop-color="#ededf1"/>
    </linearGradient>
    <linearGradient id="New_Gradient_Swatch_11" gradientUnits="userSpaceOnUse" x1="116" x2="204" y1="388" y2="300">
        <stop offset=".011" stop-color="#60c6be"/>
        <stop offset="1" stop-color="#80d1cb"/>
    </linearGradient>
    <linearGradient id="New_Gradient_Swatch_14" gradientUnits="userSpaceOnUse" x1="121.122" x2="326.878" y1="313.122" y2="107.367">
        <stop offset=".015" stop-color="#a6a6b9"/>
        <stop offset="1" stop-color="#cacad5"/>
    </linearGradient>
    <g id="_01-meal" data-name="01-meal">
        <g id="linear_color" data-name="linear color">
            <path d="m411 297c-13 11-28 33-28 33l-46.763 22.66-40.237-16.66a32 32 0 0 0 32-32v-16h-136v96l144 24 72-40 41-67s-10.688-27.11-38-4z" fill="url(#New_Gradient_Swatch_1)"/>
            <path d="m16 288h112v208h-112z" fill="url(#New_Gradient_Swatch_4)"/>
            <path d="m128 288h64v112h-64z" fill="url(#New_Gradient_Swatch_11)"/>
            <path d="m400 240s-16-160-176-160-176 160-176 160z" fill="url(#New_Gradient_Swatch_14)"/>
            <path d="m438.205 276.534c-11.043-2.779-22.806 1.025-34.956 11.305-11.4 9.643-23.675 26.237-28.29 32.723l-39.107 18.95-9.32-3.858a43.877 43.877 0 0 0 13.468-31.654v-16a12 12 0 0 0 -12-12h-312a12 12 0 0 0 0 24h100v184h-100a12 12 0 0 0 0 24h112a12 12 0 0 0 12-12v-84h52a12 12 0 0 0 12-12v-1.834l130.027 21.671a12.014 12.014 0 0 0 7.8-1.347l72-40a12.008 12.008 0 0 0 4.408-4.226l41-67a12 12 0 0 0 .928-10.665c-.651-1.653-6.801-16.251-21.958-20.065zm-258.205 111.466h-40v-88h40zm219.412-28.957-65.575 36.431-129.837-21.64v-73.834h112v4a20.027 20.027 0 0 1 -13.814 19.009c-.063 0-.123-.009-.186-.009h-37a12 12 0 0 0 0 24h26.222c.063.028.123.061.187.087l40.237 16.661a12 12 0 0 0 9.824-.289l46.763-22.66a12.015 12.015 0 0 0 4.68-4.036c.141-.207 14.257-20.8 25.838-30.6 5.533-4.681 10.591-7.062 13.538-6.368a5.86 5.86 0 0 1 2.5 1.436z"/>
            <path d="m16 252h416a12 12 0 0 0 0-24h-21.72a230.787 230.787 0 0 0 -27.99-74.174c-20.385-33.974-58.124-73.6-125.418-83.494.786-2.3 1.564-4.759 2.276-7.342 5.028-18.245 4.309-32.784-2.138-43.215-4.448-7.196-13.785-15.775-33.01-15.775s-28.563 8.579-33.01 15.775c-6.447 10.431-7.166 24.97-2.138 43.215.712 2.583 1.49 5.044 2.276 7.342-67.294 9.891-105.028 49.52-125.418 83.494a230.787 230.787 0 0 0 -27.99 74.174h-21.72a12 12 0 0 0 0 24zm195.411-219.616c2.554-5.841 22.624-5.841 25.178 0 4.341 7 .473 23.476-4.437 35.751-5.333-.18-10.971-.18-16.3 0-4.914-12.275-8.782-28.747-4.441-35.751zm-124.696 133.085c29.558-48.75 75.747-73.469 137.285-73.469s107.727 24.719 137.285 73.469c14.48 23.882 21.382 48.111 24.482 62.531h-323.534c3.1-14.42 10.002-38.649 24.482-62.531z"/>
            <path d="m384.5 92.5a36.04 36.04 0 0 0 36-36 12.013 12.013 0 0 1 12-12 12 12 0 0 0 0-24 36.04 36.04 0 0 0 -36 36 12.013 12.013 0 0 1 -12 12 12 12 0 0 0 0 24z"/>
            <path d="m460 77a36.04 36.04 0 0 0 -36 36 12.013 12.013 0 0 1 -12 12 12 12 0 0 0 0 24 36.04 36.04 0 0 0 36-36 12.013 12.013 0 0 1 12-12 12 12 0 0 0 0-24z"/>
        </g>
    </g>
</svg>